<mxfile host="app.diagrams.net" modified="2023-10-23T15:33:29.055Z" agent="Mozilla/5.0 (X11; Linux x86_64; rv:109.0) Gecko/20100101 Firefox/114.0" version="22.0.6" etag="kelvlUJpHyf8Q60kEn8J" type="github">
  <diagram name="PÃ¡gina-1" id="4hLsBG58bhGs6MPBeUip">
    <mxGraphModel>
      <root>
        <mxCell id="0" />
        <mxCell id="1" parent="0" />
      </root>
    </mxGraphModel>
  </diagram>
</mxfile>
